<svg xmlns="http://www.w3.org/2000/svg" width="1200" height="700" viewBox="0 0 1200 700"><rect width="1200" height="700" fill="#07101f"/><text x="600" y="55" text-anchor="middle" fill="white" font-size="34" font-family="Arial" font-weight="700">FOMA — Kubernetes Application Architecture</text><g font-family="Arial" font-size="22" text-anchor="middle"><rect x="60" y="280" width="180" height="90" rx="18" fill="#123a78" stroke="#22d3ee" stroke-width="3"/><text x="150" y="335" fill="white">Client</text><rect x="300" y="280" width="190" height="90" rx="18" fill="#542078" stroke="#c084fc" stroke-width="3"/><text x="395" y="335" fill="white">Service</text><rect x="550" y="150" width="210" height="90" rx="18" fill="#0b5b4b" stroke="#34d399" stroke-width="3"/><text x="655" y="205" fill="white">Deployment</text><rect x="550" y="305" width="210" height="90" rx="18" fill="#7a2e13" stroke="#fb923c" stroke-width="3"/><text x="655" y="360" fill="white">ReplicaSet</text><rect x="550" y="460" width="210" height="90" rx="18" fill="#133f7a" stroke="#60a5fa" stroke-width="3"/><text x="655" y="515" fill="white">Pods</text><rect x="880" y="120" width="220" height="85" rx="18" fill="#4c1d95" stroke="#a78bfa" stroke-width="3"/><text x="990" y="172" fill="white">ConfigMap</text><rect x="880" y="250" width="220" height="85" rx="18" fill="#7f1d1d" stroke="#fb7185" stroke-width="3"/><text x="990" y="302" fill="white">Secret</text><rect x="880" y="380" width="220" height="85" rx="18" fill="#164e63" stroke="#67e8f9" stroke-width="3"/><text x="990" y="432" fill="white">PVC → Storage</text></g><g stroke="white" stroke-width="4" fill="none"><path d="M240 325H300"/><path d="M490 325H550V195"/><path d="M655 240V305"/><path d="M655 395V460"/><path d="M760 195H880"/><path d="M760 350H880V292"/><path d="M760 505H880V422"/></g><text x="600" y="635" text-anchor="middle" fill="#a5f3fc" font-size="25" font-family="Arial">Desired state • Configuration • Networking • Persistence</text></svg>