<svg xmlns="http://www.w3.org/2000/svg" width="1200" height="620" viewBox="0 0 1200 620"><rect width="1200" height="620" rx="28" fill="#071426"/><text x="60" y="65" fill="white" font-family="Arial" font-size="36" font-weight="700">FOMA • Docker Production Flow</text><g font-family="Arial" text-anchor="middle"><rect x="55" y="135" width="210" height="135" rx="20" fill="#10234b" stroke="#22d3ee" stroke-width="3"/><text x="160" y="190" fill="#67e8f9" font-size="23">DOCKERFILE</text><text x="160" y="230" fill="white" font-size="16">repeatable recipe</text><path d="M275 202h55" stroke="#67e8f9" stroke-width="5"/><rect x="330" y="135" width="210" height="135" rx="20" fill="#21164c" stroke="#a78bfa" stroke-width="3"/><text x="435" y="190" fill="#c4b5fd" font-size="23">IMAGE</text><text x="435" y="230" fill="white" font-size="16">build • tag • scan</text><path d="M550 202h55" stroke="#a78bfa" stroke-width="5"/><rect x="605" y="135" width="210" height="135" rx="20" fill="#102f2b" stroke="#22c55e" stroke-width="3"/><text x="710" y="190" fill="#86efac" font-size="23">CONTAINER</text><text x="710" y="230" fill="white" font-size="16">run • logs • health</text><path d="M825 202h55" stroke="#22c55e" stroke-width="5"/><rect x="880" y="135" width="260" height="135" rx="20" fill="#3b2710" stroke="#f59e0b" stroke-width="3"/><text x="1010" y="190" fill="#fcd34d" font-size="23">REGISTRY</text><text x="1010" y="230" fill="white" font-size="16">push • pull • release</text></g><rect x="70" y="335" width="1060" height="190" rx="24" fill="#0b1b31" stroke="#334155" stroke-width="2"/><text x="100" y="380" fill="white" font-family="Arial" font-size="25" font-weight="700">Production gates</text><g fill="#a7f3d0" font-family="Arial" font-size="19"><text x="110" y="425">✓ Minimal runtime</text><text x="350" y="425">✓ Non-root</text><text x="570" y="425">✓ No secrets</text><text x="790" y="425">✓ Health &amp; logs</text><text x="110" y="470">✓ Persistent data</text><text x="350" y="470">✓ Controlled network</text><text x="570" y="470">✓ Image scan</text><text x="790" y="470">✓ Traceable tag</text></g><text x="600" y="510" text-anchor="middle" fill="#38bdf8" font-family="Arial" font-size="18">LEARN • PRACTICE • BUILD • ADVANCE • foma.life</text></svg>