<svg xmlns="http://www.w3.org/2000/svg" width="1200" height="650" viewBox="0 0 1200 650"><rect width="1200" height="650" rx="28" fill="#111827"/><text x="600" y="70" text-anchor="middle" fill="#fff" font-size="34" font-family="Arial" font-weight="700">FOMA — CI/CD Production Line</text><g font-family="Arial" font-size="21" text-anchor="middle"><rect x="50" y="180" width="145" height="85" rx="14" fill="#1f2937" stroke="#60a5fa" stroke-width="3"/><text x="122" y="232" fill="#fff">Git</text><rect x="220" y="180" width="145" height="85" rx="14" fill="#1f2937" stroke="#a78bfa" stroke-width="3"/><text x="292" y="232" fill="#fff">Build</text><rect x="390" y="180" width="145" height="85" rx="14" fill="#1f2937" stroke="#34d399" stroke-width="3"/><text x="462" y="232" fill="#fff">Test</text><rect x="560" y="180" width="145" height="85" rx="14" fill="#1f2937" stroke="#fbbf24" stroke-width="3"/><text x="632" y="232" fill="#fff">Scan</text><rect x="730" y="180" width="145" height="85" rx="14" fill="#1f2937" stroke="#f87171" stroke-width="3"/><text x="802" y="232" fill="#fff">Package</text><rect x="900" y="180" width="145" height="85" rx="14" fill="#1f2937" stroke="#60a5fa" stroke-width="3"/><text x="972" y="232" fill="#fff">Deploy</text><path d="M195 222H220M365 222H390M535 222H560M705 222H730M875 222H900" stroke="#fff" stroke-width="4"/><rect x="320" y="370" width="560" height="100" rx="18" fill="#1f2937" stroke="#34d399" stroke-width="3"/><text x="600" y="415" fill="#fff">Verify → Observe → Improve</text><text x="600" y="450" fill="#cbd5e1" font-size="18">Every stage creates feedback for the next decision.</text></g></svg>