<svg xmlns="http://www.w3.org/2000/svg" width="1200" height="520"><rect width="1200" height="520" fill="#f8fafc"/><text x="600" y="45" text-anchor="middle" font-family="Arial" font-size="28" font-weight="700" fill="#16213e">LINUX ADMINISTRATION WORKFLOW</text><g font-family="Arial" text-anchor="middle" font-weight="700"><rect x="55" y="150" width="160" height="80" rx="18" fill="#dbeafe"/><text x="135" y="184" fill="#1e3a8a">IDENTIFY</text><text x="135" y="210" font-size="13" font-weight="400">user • host • service</text><rect x="255" y="150" width="160" height="80" rx="18" fill="#e0e7ff"/><text x="335" y="184" fill="#3730a3">OBSERVE</text><text x="335" y="210" font-size="13" font-weight="400">status • resources</text><rect x="455" y="150" width="160" height="80" rx="18" fill="#ede9fe"/><text x="535" y="184" fill="#6d28d9">EVIDENCE</text><text x="535" y="210" font-size="13" font-weight="400">logs • processes</text><rect x="655" y="150" width="160" height="80" rx="18" fill="#ffedd5"/><text x="735" y="184" fill="#9a3412">CHANGE</text><text x="735" y="210" font-size="13" font-weight="400">small • controlled</text><rect x="855" y="150" width="160" height="80" rx="18" fill="#dcfce7"/><text x="935" y="184" fill="#166534">VERIFY</text><text x="935" y="210" font-size="13" font-weight="400">service • logs</text></g><g stroke="#64748b" stroke-width="3"><path d="M215 190 H255"/><path d="M415 190 H455"/><path d="M615 190 H655"/><path d="M815 190 H855"/></g><rect x="250" y="310" width="700" height="100" rx="18" fill="white" stroke="#cbd5e1"/><text x="600" y="345" text-anchor="middle" font-family="Arial" font-size="19" font-weight="700" fill="#334155">Core evidence commands</text><text x="600" y="375" text-anchor="middle" font-family="Arial" font-size="15" fill="#475569">systemctl • journalctl • ps • top • df • free • ss • ip</text></svg>